<svg xmlns="http://www.w3.org/2000/svg" xmlns:xlink="http://www.w3.org/1999/xlink" width="1003" height="1360" contentStyleType="text/css" data-diagram-type="CLASS" preserveAspectRatio="none" style="width:1003px;height:1360px;background:#fff" version="1.1" viewBox="0 0 1003 1360" zoomAndPan="magnify"><g><g id="elem_m_idle"><rect id="m_idle" width="77.917" height="48" x="539.33" y="7" fill="#F1F1F1" rx="2.5" ry="2.5" style="stroke:#181818;stroke-width:.5"/><ellipse cx="554.33" cy="23" fill="#ADD1B2" rx="11" ry="11" style="stroke:#181818;stroke-width:1"/><path fill="#000" d="M557.2988,28.6406 Q556.7206,28.9375 556.08,29.0781 Q555.4394,29.2344 554.7363,29.2344 Q552.2363,29.2344 550.9081,27.5938 Q549.5956,25.9375 549.5956,22.8125 Q549.5956,19.6875 550.9081,18.0313 Q552.2363,16.375 554.7363,16.375 Q555.4394,16.375 556.08,16.5313 Q556.7363,16.6875 557.2988,16.9844 L557.2988,19.7031 Q556.6738,19.125 556.08,18.8594 Q555.4863,18.5781 554.8613,18.5781 Q553.5175,18.5781 552.83,19.6563 Q552.1425,20.7188 552.1425,22.8125 Q552.1425,24.9063 552.83,25.9844 Q553.5175,27.0469 554.8613,27.0469 Q555.4863,27.0469 556.08,26.7813 Q556.6738,26.5 557.2988,25.9219 L557.2988,28.6406 Z"/><text x="568.33" y="27.847" fill="#000" font-family="sans-serif" font-size="14" lengthAdjust="spacing" textLength="45.917">m_idle</text><line style="stroke:#181818;stroke-width:.5" x1="540.33" x2="616.247" y1="39" y2="39"/><line style="stroke:#181818;stroke-width:.5" x1="540.33" x2="616.247" y1="47" y2="47"/></g><g id="elem_m_waitLastCmt"><rect id="m_waitLastCmt" width="165.999" height="64.297" x="495.29" y="132" fill="#F1F1F1" rx="2.5" ry="2.5" style="stroke:#181818;stroke-width:.5"/><ellipse cx="521.94" cy="148" fill="#ADD1B2" rx="11" ry="11" style="stroke:#181818;stroke-width:1"/><path fill="#000" d="M524.9088,153.6406 Q524.3307,153.9375 523.69,154.0781 Q523.0494,154.2344 522.3463,154.2344 Q519.8463,154.2344 518.5182,152.5938 Q517.2057,150.9375 517.2057,147.8125 Q517.2057,144.6875 518.5182,143.0313 Q519.8463,141.375 522.3463,141.375 Q523.0494,141.375 523.69,141.5313 Q524.3463,141.6875 524.9088,141.9844 L524.9088,144.7031 Q524.2838,144.125 523.69,143.8594 Q523.0963,143.5781 522.4713,143.5781 Q521.1275,143.5781 520.44,144.6563 Q519.7525,145.7188 519.7525,147.8125 Q519.7525,149.9063 520.44,150.9844 Q521.1275,152.0469 522.4713,152.0469 Q523.0963,152.0469 523.69,151.7813 Q524.2838,151.5 524.9088,150.9219 L524.9088,153.6406 Z"/><text x="538.529" y="152.847" fill="#000" font-family="sans-serif" font-size="14" lengthAdjust="spacing" textLength="108.11">m_waitLastCmt</text><line style="stroke:#181818;stroke-width:.5" x1="496.29" x2="660.289" y1="164" y2="164"/><text x="501.29" y="180.995" fill="#000" font-family="sans-serif" font-size="14" lengthAdjust="spacing" textLength="153.999">等待之前的指令提交完成</text><line style="stroke:#181818;stroke-width:.5" x1="496.29" x2="660.289" y1="188.297" y2="188.297"/></g><g id="elem_m_sendReq"><rect id="m_sendReq" width="202.121" height="64.297" x="383.23" y="273.3" fill="#F1F1F1" rx="2.5" ry="2.5" style="stroke:#181818;stroke-width:.5"/><ellipse cx="439.274" cy="289.3" fill="#ADD1B2" rx="11" ry="11" style="stroke:#181818;stroke-width:1"/><path fill="#000" d="M442.243,294.9406 Q441.6648,295.2375 441.0242,295.3781 Q440.3836,295.5344 439.6805,295.5344 Q437.1805,295.5344 435.8523,293.8938 Q434.5398,292.2375 434.5398,289.1125 Q434.5398,285.9875 435.8523,284.3313 Q437.1805,282.675 439.6805,282.675 Q440.3836,282.675 441.0242,282.8313 Q441.6805,282.9875 442.243,283.2844 L442.243,286.0031 Q441.618,285.425 441.0242,285.1594 Q440.4305,284.8781 439.8055,284.8781 Q438.4617,284.8781 437.7742,285.9563 Q437.0867,287.0188 437.0867,289.1125 Q437.0867,291.2063 437.7742,292.2844 Q438.4617,293.3469 439.8055,293.3469 Q440.4305,293.3469 441.0242,293.0813 Q441.618,292.8 442.243,292.2219 L442.243,294.9406 Z"/><text x="459.774" y="294.147" fill="#000" font-family="sans-serif" font-size="14" lengthAdjust="spacing" textLength="81.532">m_sendReq</text><line style="stroke:#181818;stroke-width:.5" x1="384.23" x2="584.351" y1="305.3" y2="305.3"/><text x="389.23" y="322.295" fill="#000" font-family="sans-serif" font-size="14" lengthAdjust="spacing" textLength="190.121">向InstrUncache模块发送请求</text><line style="stroke:#181818;stroke-width:.5" x1="384.23" x2="584.351" y1="329.597" y2="329.597"/></g><g id="elem_m_waitResp"><rect id="m_waitResp" width="116.567" height="48" x="426" y="414.59" fill="#F1F1F1" rx="2.5" ry="2.5" style="stroke:#181818;stroke-width:.5"/><ellipse cx="441" cy="430.59" fill="#ADD1B2" rx="11" ry="11" style="stroke:#181818;stroke-width:1"/><path fill="#000" d="M443.9688,436.2306 Q443.3906,436.5275 442.75,436.6681 Q442.1094,436.8244 441.4063,436.8244 Q438.9063,436.8244 437.5781,435.1838 Q436.2656,433.5275 436.2656,430.4025 Q436.2656,427.2775 437.5781,425.6213 Q438.9063,423.965 441.4063,423.965 Q442.1094,423.965 442.75,424.1213 Q443.4063,424.2775 443.9688,424.5744 L443.9688,427.2931 Q443.3438,426.715 442.75,426.4494 Q442.1563,426.1681 441.5313,426.1681 Q440.1875,426.1681 439.5,427.2463 Q438.8125,428.3088 438.8125,430.4025 Q438.8125,432.4963 439.5,433.5744 Q440.1875,434.6369 441.5313,434.6369 Q442.1563,434.6369 442.75,434.3713 Q443.3438,434.09 443.9688,433.5119 L443.9688,436.2306 Z"/><text x="455" y="435.437" fill="#000" font-family="sans-serif" font-size="14" lengthAdjust="spacing" textLength="84.567">m_waitResp</text><line style="stroke:#181818;stroke-width:.5" x1="427" x2="541.567" y1="446.59" y2="446.59"/><line style="stroke:#181818;stroke-width:.5" x1="427" x2="541.567" y1="454.59" y2="454.59"/></g><g id="elem_m_sendTLB"><rect id="m_sendTLB" width="112.261" height="48" x="242.16" y="539.59" fill="#F1F1F1" rx="2.5" ry="2.5" style="stroke:#181818;stroke-width:.5"/><ellipse cx="257.16" cy="555.59" fill="#ADD1B2" rx="11" ry="11" style="stroke:#181818;stroke-width:1"/><path fill="#000" d="M260.1287,561.2306 Q259.5506,561.5275 258.91,561.6681 Q258.2694,561.8244 257.5662,561.8244 Q255.0662,561.8244 253.7381,560.1838 Q252.4256,558.5275 252.4256,555.4025 Q252.4256,552.2775 253.7381,550.6213 Q255.0662,548.965 257.5662,548.965 Q258.2694,548.965 258.91,549.1213 Q259.5662,549.2775 260.1287,549.5744 L260.1287,552.2931 Q259.5037,551.715 258.91,551.4494 Q258.3162,551.1681 257.6912,551.1681 Q256.3475,551.1681 255.66,552.2463 Q254.9725,553.3088 254.9725,555.4025 Q254.9725,557.4963 255.66,558.5744 Q256.3475,559.6369 257.6912,559.6369 Q258.3162,559.6369 258.91,559.3713 Q259.5037,559.09 260.1287,558.5119 L260.1287,561.2306 Z"/><text x="271.16" y="560.437" fill="#000" font-family="sans-serif" font-size="14" lengthAdjust="spacing" textLength="80.261">m_sendTLB</text><line style="stroke:#181818;stroke-width:.5" x1="243.16" x2="353.421" y1="571.59" y2="571.59"/><line style="stroke:#181818;stroke-width:.5" x1="243.16" x2="353.421" y1="579.59" y2="579.59"/></g><g id="elem_m_waitCommit"><rect id="m_waitCommit" width="251.032" height="64.297" x="247.77" y="1164.59" fill="#F1F1F1" rx="2.5" ry="2.5" style="stroke:#181818;stroke-width:.5"/><ellipse cx="316.515" cy="1180.59" fill="#ADD1B2" rx="11" ry="11" style="stroke:#181818;stroke-width:1"/><path fill="#000" d="M319.4841,1186.2306 Q318.9059,1186.5275 318.2653,1186.6681 Q317.6247,1186.8244 316.9216,1186.8244 Q314.4216,1186.8244 313.0934,1185.1838 Q311.7809,1183.5275 311.7809,1180.4025 Q311.7809,1177.2775 313.0934,1175.6213 Q314.4216,1173.965 316.9216,1173.965 Q317.6247,1173.965 318.2653,1174.1213 Q318.9216,1174.2775 319.4841,1174.5744 L319.4841,1177.2931 Q318.8591,1176.715 318.2653,1176.4494 Q317.6716,1176.1681 317.0466,1176.1681 Q315.7028,1176.1681 315.0153,1177.2463 Q314.3278,1178.3088 314.3278,1180.4025 Q314.3278,1182.4963 315.0153,1183.5744 Q315.7028,1184.6369 317.0466,1184.6369 Q317.6716,1184.6369 318.2653,1184.3713 Q318.8591,1184.09 319.4841,1183.5119 L319.4841,1186.2306 Z"/><text x="337.015" y="1185.437" fill="#000" font-family="sans-serif" font-size="14" lengthAdjust="spacing" textLength="105.041">m_waitCommit</text><line style="stroke:#181818;stroke-width:.5" x1="248.77" x2="497.802" y1="1196.59" y2="1196.59"/><text x="253.77" y="1213.585" fill="#000" font-family="sans-serif" font-size="14" lengthAdjust="spacing" textLength="239.032">向Ibuffer发送错误信息后等待commit</text><line style="stroke:#181818;stroke-width:.5" x1="248.77" x2="497.802" y1="1220.887" y2="1220.887"/></g><g id="elem_m_tlbResp"><rect id="m_tlbResp" width="105.425" height="48" x="245.58" y="664.59" fill="#F1F1F1" rx="2.5" ry="2.5" style="stroke:#181818;stroke-width:.5"/><ellipse cx="260.58" cy="680.59" fill="#ADD1B2" rx="11" ry="11" style="stroke:#181818;stroke-width:1"/><path fill="#000" d="M263.5488,686.2306 Q262.9706,686.5275 262.33,686.6681 Q261.6894,686.8244 260.9863,686.8244 Q258.4863,686.8244 257.1581,685.1838 Q255.8456,683.5275 255.8456,680.4025 Q255.8456,677.2775 257.1581,675.6213 Q258.4863,673.965 260.9863,673.965 Q261.6894,673.965 262.33,674.1213 Q262.9863,674.2775 263.5488,674.5744 L263.5488,677.2931 Q262.9238,676.715 262.33,676.4494 Q261.7363,676.1681 261.1113,676.1681 Q259.7675,676.1681 259.08,677.2463 Q258.3925,678.3088 258.3925,680.4025 Q258.3925,682.4963 259.08,683.5744 Q259.7675,684.6369 261.1113,684.6369 Q261.7363,684.6369 262.33,684.3713 Q262.9238,684.09 263.5488,683.5119 L263.5488,686.2306 Z"/><text x="274.58" y="685.437" fill="#000" font-family="sans-serif" font-size="14" lengthAdjust="spacing" textLength="73.425">m_tlbResp</text><line style="stroke:#181818;stroke-width:.5" x1="246.58" x2="350.005" y1="696.59" y2="696.59"/><line style="stroke:#181818;stroke-width:.5" x1="246.58" x2="350.005" y1="704.59" y2="704.59"/></g><g id="elem_m_sendPMP"><rect id="m_sendPMP" width="115.269" height="48" x="213.65" y="789.59" fill="#F1F1F1" rx="2.5" ry="2.5" style="stroke:#181818;stroke-width:.5"/><ellipse cx="228.65" cy="805.59" fill="#ADD1B2" rx="11" ry="11" style="stroke:#181818;stroke-width:1"/><path fill="#000" d="M231.6188,811.2306 Q231.0406,811.5275 230.4,811.6681 Q229.7594,811.8244 229.0563,811.8244 Q226.5563,811.8244 225.2281,810.1838 Q223.9156,808.5275 223.9156,805.4025 Q223.9156,802.2775 225.2281,800.6213 Q226.5563,798.965 229.0563,798.965 Q229.7594,798.965 230.4,799.1213 Q231.0563,799.2775 231.6188,799.5744 L231.6188,802.2931 Q230.9938,801.715 230.4,801.4494 Q229.8063,801.1681 229.1813,801.1681 Q227.8375,801.1681 227.15,802.2463 Q226.4625,803.3088 226.4625,805.4025 Q226.4625,807.4963 227.15,808.5744 Q227.8375,809.6369 229.1813,809.6369 Q229.8063,809.6369 230.4,809.3713 Q230.9938,809.09 231.6188,808.5119 L231.6188,811.2306 Z"/><text x="242.65" y="810.437" fill="#000" font-family="sans-serif" font-size="14" lengthAdjust="spacing" textLength="83.269">m_sendPMP</text><line style="stroke:#181818;stroke-width:.5" x1="214.65" x2="327.919" y1="821.59" y2="821.59"/><line style="stroke:#181818;stroke-width:.5" x1="214.65" x2="327.919" y1="829.59" y2="829.59"/></g><g id="elem_m_resendReq"><rect id="m_resendReq" width="127.901" height="48" x="57.34" y="914.59" fill="#F1F1F1" rx="2.5" ry="2.5" style="stroke:#181818;stroke-width:.5"/><ellipse cx="72.34" cy="930.59" fill="#ADD1B2" rx="11" ry="11" style="stroke:#181818;stroke-width:1"/><path fill="#000" d="M75.3088,936.2306 Q74.7306,936.5275 74.09,936.6681 Q73.4494,936.8244 72.7463,936.8244 Q70.2463,936.8244 68.9181,935.1838 Q67.6056,933.5275 67.6056,930.4025 Q67.6056,927.2775 68.9181,925.6213 Q70.2463,923.965 72.7463,923.965 Q73.4494,923.965 74.09,924.1213 Q74.7463,924.2775 75.3088,924.5744 L75.3088,927.2931 Q74.6838,926.715 74.09,926.4494 Q73.4963,926.1681 72.8713,926.1681 Q71.5275,926.1681 70.84,927.2463 Q70.1525,928.3088 70.1525,930.4025 Q70.1525,932.4963 70.84,933.5744 Q71.5275,934.6369 72.8713,934.6369 Q73.4963,934.6369 74.09,934.3713 Q74.6838,934.09 75.3088,933.5119 L75.3088,936.2306 Z"/><text x="86.34" y="935.437" fill="#000" font-family="sans-serif" font-size="14" lengthAdjust="spacing" textLength="95.901">m_resendReq</text><line style="stroke:#181818;stroke-width:.5" x1="58.34" x2="184.241" y1="946.59" y2="946.59"/><line style="stroke:#181818;stroke-width:.5" x1="58.34" x2="184.241" y1="954.59" y2="954.59"/></g><g id="elem_m_waitResendResp"><rect id="m_waitResendResp" width="168.575" height="48" x="7" y="1039.59" fill="#F1F1F1" rx="2.5" ry="2.5" style="stroke:#181818;stroke-width:.5"/><ellipse cx="22" cy="1055.59" fill="#ADD1B2" rx="11" ry="11" style="stroke:#181818;stroke-width:1"/><path fill="#000" d="M24.9688,1061.2306 Q24.3906,1061.5275 23.75,1061.6681 Q23.1094,1061.8244 22.4063,1061.8244 Q19.9063,1061.8244 18.5781,1060.1838 Q17.2656,1058.5275 17.2656,1055.4025 Q17.2656,1052.2775 18.5781,1050.6213 Q19.9063,1048.965 22.4063,1048.965 Q23.1094,1048.965 23.75,1049.1213 Q24.4063,1049.2775 24.9688,1049.5744 L24.9688,1052.2931 Q24.3438,1051.715 23.75,1051.4494 Q23.1563,1051.1681 22.5313,1051.1681 Q21.1875,1051.1681 20.5,1052.2463 Q19.8125,1053.3088 19.8125,1055.4025 Q19.8125,1057.4963 20.5,1058.5744 Q21.1875,1059.6369 22.5313,1059.6369 Q23.1563,1059.6369 23.75,1059.3713 Q24.3438,1059.09 24.9688,1058.5119 L24.9688,1061.2306 Z"/><text x="36" y="1060.437" fill="#000" font-family="sans-serif" font-size="14" lengthAdjust="spacing" textLength="136.575">m_waitResendResp</text><line style="stroke:#181818;stroke-width:.5" x1="8" x2="174.575" y1="1071.59" y2="1071.59"/><line style="stroke:#181818;stroke-width:.5" x1="8" x2="174.575" y1="1079.59" y2="1079.59"/></g><g id="elem_m_commited"><rect id="m_commited" width="123.055" height="48" x="311.76" y="1305.89" fill="#F1F1F1" rx="2.5" ry="2.5" style="stroke:#181818;stroke-width:.5"/><ellipse cx="326.76" cy="1321.89" fill="#ADD1B2" rx="11" ry="11" style="stroke:#181818;stroke-width:1"/><path fill="#000" d="M329.7288,1327.5306 Q329.1506,1327.8275 328.51,1327.9681 Q327.8694,1328.1244 327.1663,1328.1244 Q324.6663,1328.1244 323.3381,1326.4838 Q322.0256,1324.8275 322.0256,1321.7025 Q322.0256,1318.5775 323.3381,1316.9213 Q324.6663,1315.265 327.1663,1315.265 Q327.8694,1315.265 328.51,1315.4213 Q329.1663,1315.5775 329.7288,1315.8744 L329.7288,1318.5931 Q329.1038,1318.015 328.51,1317.7494 Q327.9163,1317.4681 327.2913,1317.4681 Q325.9475,1317.4681 325.26,1318.5463 Q324.5725,1319.6088 324.5725,1321.7025 Q324.5725,1323.7963 325.26,1324.8744 Q325.9475,1325.9369 327.2913,1325.9369 Q327.9163,1325.9369 328.51,1325.6713 Q329.1038,1325.39 329.7288,1324.8119 L329.7288,1327.5306 Z"/><text x="340.76" y="1326.737" fill="#000" font-family="sans-serif" font-size="14" lengthAdjust="spacing" textLength="91.055">m_commited</text><line style="stroke:#181818;stroke-width:.5" x1="312.76" x2="433.815" y1="1337.89" y2="1337.89"/><line style="stroke:#181818;stroke-width:.5" x1="312.76" x2="433.815" y1="1345.89" y2="1345.89"/></g><g id="link_m_idle_m_waitLastCmt"><path id="m_idle-to-m_waitLastCmt" fill="transparent" d="M578.29,55.45 C578.29,76.67 578.29,102.09 578.29,125.53" codeLine="3" style="stroke:#181818;stroke-width:1"/><polygon fill="#181818" points="578.29 131.53 582.29 122.53 578.29 126.53 574.29 122.53 578.29 131.53" style="stroke:#181818;stroke-width:1"/><text x="579.29" y="98.067" fill="#000" font-family="sans-serif" font-size="13" lengthAdjust="spacing" textLength="101.22">f3_req_is_mmio</text></g><g id="link_m_idle_m_sendReq"><path id="m_idle-to-m_sendReq" fill="transparent" d="M539,42.57 C498.09,55.92 436.17,83.25 408.29,132 C381.32,179.14 417.2907,233.1783 448.7207,268.4883" codeLine="4" style="stroke:#181818;stroke-width:1"/><polygon fill="#181818" points="452.71 272.97 449.714 263.588 449.386 269.235 443.738 268.907 452.71 272.97" style="stroke:#181818;stroke-width:1"/><text x="409.29" y="168.717" fill="#000" font-family="sans-serif" font-size="13" lengthAdjust="spacing" textLength="68.301">pbmt is nc</text></g><g id="link_m_waitLastCmt_m_sendReq"><path id="m_waitLastCmt-to-m_sendReq" fill="transparent" d="M556.96,196.76 C541.57,219.55 524.2569,245.2169 508.8869,267.9869" codeLine="8" style="stroke:#181818;stroke-width:1"/><polygon fill="#181818" points="505.53 272.96 513.881 267.738 508.327 268.816 507.25 263.262 505.53 272.96" style="stroke:#181818;stroke-width:1"/><text x="537.29" y="239.367" fill="#000" font-family="sans-serif" font-size="13" lengthAdjust="spacing" textLength="214.456">is_first_instr or mmioLastCommit</text></g><g id="link_m_waitLastCmt_m_waitLastCmt"><path id="m_waitLastCmt-to-m_waitLastCmt" fill="transparent" d="M661.54,151.13 C681.5,152.15 696.29,156.49 696.29,164.15 C696.29,171.81 687.4922,175.8338 667.5322,176.8538" codeLine="9" style="stroke:#181818;stroke-width:1"/><polygon fill="#181818" points="661.54 177.16 670.732 180.696 666.534 176.905 670.324 172.706 661.54 177.16" style="stroke:#181818;stroke-width:1"/><text x="702.29" y="168.717" fill="#000" font-family="sans-serif" font-size="13" lengthAdjust="spacing" textLength="252.11">not first instr and no mmioLastCommit</text></g><g id="link_m_sendReq_m_waitResp"><path id="m_sendReq-to-m_waitResp" fill="transparent" d="M484.29,337.86 C484.29,361.35 484.29,386.96 484.29,408.24" codeLine="12" style="stroke:#181818;stroke-width:1"/><polygon fill="#181818" points="484.29 414.24 488.29 405.24 484.29 409.24 480.29 405.24 484.29 414.24" style="stroke:#181818;stroke-width:1"/><text x="485.29" y="380.657" fill="#000" font-family="sans-serif" font-size="13" lengthAdjust="spacing" textLength="86.696">send finished</text></g><g id="link_m_waitResp_m_sendTLB"><path id="m_waitResp-to-m_sendTLB" fill="transparent" d="M425.73,448.17 C376.32,456.75 311.14,471.68 295.29,492.59 C285.37,505.68 285.3517,518.5928 288.8717,533.3928" codeLine="14" style="stroke:#181818;stroke-width:1"/><polygon fill="#181818" points="290.26 539.23 292.069 529.549 289.103 534.366 284.286 531.4 290.26 539.23" style="stroke:#181818;stroke-width:1"/><text x="296.29" y="505.657" fill="#000" font-family="sans-serif" font-size="13" lengthAdjust="spacing" textLength="309.734">receive reply from uncache and need to resend</text></g><g id="link_m_waitResp_m_waitCommit"><path id="m_waitResp-to-m_waitCommit" fill="transparent" d="M543.02,452.7 C566.74,460.68 592.63,473.2 610.29,492.59 C632.24,516.71 632.29,529.98 632.29,562.59 C632.29,562.59 632.29,562.59 632.29,1064.59 C632.29,1130.37 570.8039,1161.717 504.8139,1178.067" codeLine="15" style="stroke:#181818;stroke-width:1"/><polygon fill="#181818" points="498.99 1179.51 508.688 1181.228 503.843 1178.307 506.764 1173.463 498.99 1179.51" style="stroke:#181818;stroke-width:1"/><text x="633.29" y="818.157" fill="#000" font-family="sans-serif" font-size="13" lengthAdjust="spacing" textLength="309.461">receive reply from uncache and needn&apos;t resend</text></g><g id="link_m_sendTLB_m_tlbResp"><path id="m_sendTLB-to-m_tlbResp" fill="transparent" d="M298.29,588.02 C298.29,609.9 298.29,636.4 298.29,658.26" codeLine="17" style="stroke:#181818;stroke-width:1"/><polygon fill="#181818" points="298.29 664.26 302.29 655.26 298.29 659.26 294.29 655.26 298.29 664.26" style="stroke:#181818;stroke-width:1"/><text x="299.29" y="630.657" fill="#000" font-family="sans-serif" font-size="13" lengthAdjust="spacing" textLength="86.696">send finished</text></g><g id="link_m_tlbResp_m_sendPMP"><path id="m_tlbResp-to-m_sendPMP" fill="transparent" d="M287.98,712.93 C284.36,722.02 280.62,732.63 278.29,742.59 C274.69,757.93 273.3105,769.6014 272.4605,783.3414" codeLine="19" style="stroke:#181818;stroke-width:1"/><polygon fill="#181818" points="272.09 789.33 276.638 780.594 272.399 784.34 268.653 780.1 272.09 789.33" style="stroke:#181818;stroke-width:1"/><text x="279.29" y="755.657" fill="#000" font-family="sans-serif" font-size="13" lengthAdjust="spacing" textLength="146.288">no exception detected</text></g><g id="link_m_tlbResp_m_waitCommit"><path id="m_tlbResp-to-m_waitCommit" fill="transparent" d="M351.45,699.59 C378.38,707.2 409.66,720.3 430.29,742.59 C452.44,766.53 452.29,779.98 452.29,812.59 C452.29,812.59 452.29,812.59 452.29,1064.59 C452.29,1102.74 431.4232,1134.8253 409.6132,1159.6153" codeLine="20" style="stroke:#181818;stroke-width:1"/><polygon fill="#181818" points="405.65 1164.12 414.598 1160.005 408.953 1160.366 408.592 1154.721 405.65 1164.12" style="stroke:#181818;stroke-width:1"/><text x="453.29" y="943.157" fill="#000" font-family="sans-serif" font-size="13" lengthAdjust="spacing" textLength="125.963">exception detected</text></g><g id="link_m_sendPMP_m_resendReq"><path id="m_sendPMP-to-m_resendReq" fill="transparent" d="M213.17,821.45 C183.09,828.15 148.52,841.4 128.29,867.59 C118.21,880.64 116.4302,893.402 117.3702,908.222" codeLine="24" style="stroke:#181818;stroke-width:1"/><polygon fill="#181818" points="117.75 914.21 121.172 904.975 117.433 909.22 113.188 905.481 117.75 914.21" style="stroke:#181818;stroke-width:1"/><text x="129.29" y="880.657" fill="#000" font-family="sans-serif" font-size="13" lengthAdjust="spacing" textLength="115.343">no PMP exception</text></g><g id="link_m_sendPMP_m_waitCommit"><path id="m_sendPMP-to-m_waitCommit" fill="transparent" d="M266.95,837.89 C260.94,874.96 252.47,949.34 268.29,1009.59 C283.84,1068.81 319.417,1124.1777 345.267,1159.5077" codeLine="25" style="stroke:#181818;stroke-width:1"/><polygon fill="#181818" points="348.81 1164.35 346.724 1154.725 345.858 1160.315 340.267 1159.449 348.81 1164.35" style="stroke:#181818;stroke-width:1"/><text x="269.29" y="1005.657" fill="#000" font-family="sans-serif" font-size="13" lengthAdjust="spacing" textLength="156.99">PMP exception detected</text></g><g id="link_m_resendReq_m_waitResendResp"><path id="m_resendReq-to-m_waitResendResp" fill="transparent" d="M115.57,963.02 C110.24,984.9 103.7313,1011.5708 98.4013,1033.4308" codeLine="27" style="stroke:#181818;stroke-width:1"/><polygon fill="#181818" points="96.98 1039.26 102.998 1031.464 98.164 1034.402 95.226 1029.569 96.98 1039.26" style="stroke:#181818;stroke-width:1"/><text x="109.29" y="1005.657" fill="#000" font-family="sans-serif" font-size="13" lengthAdjust="spacing" textLength="100.039">resend finished</text></g><g id="link_m_waitResendResp_m_waitCommit"><path id="m_waitResendResp-to-m_waitCommit" fill="transparent" d="M83.07,1087.83 C79.39,1102.78 77.89,1121.73 88.29,1134.59 C108.8,1159.98 175.0636,1174.51 241.6636,1183.47" codeLine="29" style="stroke:#181818;stroke-width:1"/><polygon fill="#181818" points="247.61 1184.27 239.224 1179.106 242.655 1183.603 238.157 1187.034 247.61 1184.27" style="stroke:#181818;stroke-width:1"/><text x="89.29" y="1130.657" fill="#000" font-family="sans-serif" font-size="13" lengthAdjust="spacing" textLength="178.604">receive reply from uncache</text></g><g id="link_m_waitResendResp_m_commited"><path id="m_waitResendResp-to-m_commited" fill="transparent" d="M78.04,1088.05 C72.01,1101.86 67.4,1119.52 73.29,1134.59 C94.05,1187.7 114.29,1195.19 160.29,1228.89 C206.92,1263.05 261.4766,1287.8288 305.9666,1305.0988" codeLine="30" style="stroke:#181818;stroke-width:1"/><polygon fill="#181818" points="311.56 1307.27 304.617 1300.284 306.899 1305.461 301.723 1307.742 311.56 1307.27" style="stroke:#181818;stroke-width:1"/><text x="161.29" y="1201.307" fill="#000" font-family="sans-serif" font-size="13" lengthAdjust="spacing" textLength="68.301">pbmt is nc</text></g><g id="link_m_waitCommit_m_commited"><path id="m_waitCommit-to-m_commited" fill="transparent" d="M373.29,1229.15 C373.29,1252.65 373.29,1278.25 373.29,1299.54" codeLine="32" style="stroke:#181818;stroke-width:1"/><polygon fill="#181818" points="373.29 1305.54 377.29 1296.54 373.29 1300.54 369.29 1296.54 373.29 1305.54" style="stroke:#181818;stroke-width:1"/><text x="374.29" y="1271.957" fill="#000" font-family="sans-serif" font-size="13" lengthAdjust="spacing" textLength="108.78">mmio_commited</text></g><g id="link_m_commited_m_idle"><path id="m_commited-to-m_idle" fill="transparent" d="M435.3,1328.86 C592.88,1327.13 996.29,1311.59 996.29,1197.74 C996.29,163.15 996.29,163.15 996.29,163.15 C996.29,84.24 727.6352,47.7349 623.5752,36.4849" codeLine="34" style="stroke:#181818;stroke-width:1"/><polygon fill="#181818" points="617.61 35.84 626.128 40.784 622.581 36.377 626.988 32.831 617.61 35.84" style="stroke:#181818;stroke-width:1"/></g></g></svg>